<?xml version="1.0" encoding="UTF-8"?>
<svg version="1.1" xmlns="http://www.w3.org/2000/svg" width="260" height="256">
<path d="M0 0 C85.8 0 171.6 0 260 0 C260 84.48 260 168.96 260 256 C174.2 256 88.4 256 0 256 C0 171.52 0 87.04 0 0 Z " fill="#FEFEFE" transform="translate(0,0)"/>
<path d="M0 0 C12.19349332 10.68017817 21.46064054 24.05059264 26.73828125 39.3984375 C27.32609375 41.03619141 27.32609375 41.03619141 27.92578125 42.70703125 C34.92891106 64.90792541 30.84613529 89.79919413 20.73828125 110.3984375 C18.17534364 115.06376579 15.07527316 119.2579965 11.73828125 123.3984375 C11.32594238 123.91100098 10.91360352 124.42356445 10.48876953 124.95166016 C-1.0965084 139.0957041 -18.59217728 152.16020742 -37.19921875 154.5234375 C-40.66965139 154.73154104 -41.17537039 154.45600307 -44.26171875 152.3984375 C-44.26171875 153.3884375 -44.26171875 154.3784375 -44.26171875 155.3984375 C-60.01644149 160.65001175 -81.88953605 155.09155161 -96.26171875 148.3984375 C-115.85276139 138.20770783 -133.03356135 120.81637356 -139.9296875 99.5234375 C-140.44385571 97.81739335 -140.95030341 96.10900438 -141.44921875 94.3984375 C-141.70896484 93.54765625 -141.96871094 92.696875 -142.23632812 91.8203125 C-147.26265514 74.88405816 -147.15308406 56.04972694 -141.26171875 39.3984375 C-140.97296875 38.51414063 -140.68421875 37.62984375 -140.38671875 36.71875 C-136.34461803 25.4225221 -129.07151965 15.39008966 -121.26171875 6.3984375 C-120.74480469 5.78613281 -120.22789063 5.17382812 -119.6953125 4.54296875 C-89.06281235 -29.00691237 -33.6501866 -26.68336854 0 0 Z " fill="#20BF61" transform="translate(195.26171875,59.6015625)"/>
<path d="M0 0 C2.5510095 2.5510095 1.28335483 9.45529978 1.3125 12.875 C1.35600586 14.51855469 1.35600586 14.51855469 1.40039062 16.1953125 C1.52038143 31.77565718 -5.47075506 43.51879431 -15.75390625 54.7734375 C-22.44070618 61.40209134 -26.21975149 62.20127797 -35.3125 62.25 C-36.26318359 62.270625 -37.21386719 62.29125 -38.19335938 62.3125 C-47.05001154 62.36201308 -47.05001154 62.36201308 -51 59 C-52.80859375 56.9921875 -52.80859375 56.9921875 -54.4375 54.875 C-56.89540047 51.9319876 -57.63791678 51.1053333 -61.4375 50 C-62.283125 50 -63.12875 50 -64 50 C-64.020625 50.94875 -64.04125 51.8975 -64.0625 52.875 C-64.79747914 58.46773192 -68.65280384 62.65651046 -72 67 C-73.65 66.67 -75.3 66.34 -77 66 C-77.4671291 60.68947971 -75.95391408 57.05024386 -73.4375 52.5 C-73.07325928 51.83436035 -72.70901855 51.1687207 -72.33374023 50.48291016 C-69.57578958 45.63145966 -66.82344334 41.94653861 -62 39 C-61.21882813 38.52046875 -60.43765625 38.0409375 -59.6328125 37.546875 C-53.53296703 34 -53.53296703 34 -51 34 C-51 32.02 -51 30.04 -51 28 C-56.43407194 28.3791213 -58.32733796 30.12881569 -62 34 C-62.99 34 -63.98 34 -65 34 C-64.08455278 26.84478035 -61.2916781 20.30550868 -56.140625 15.1328125 C-54.16005129 13.6038096 -52.14097709 12.29326056 -50 11 C-48.96552734 10.27296875 -48.96552734 10.27296875 -47.91015625 9.53125 C-42.52824441 6.02765459 -37.96722294 5.44181812 -31.6015625 5.43359375 C-28.33502191 6.14477751 -27.82513079 7.31567021 -26 10 C-25.01 10 -24.02 10 -23 10 C-22.62875 9.401875 -22.2575 8.80375 -21.875 8.1875 C-19.34773919 5.23902906 -16.7913224 4.79763797 -13.13671875 3.7265625 C-10.86638418 3.0883213 -10.86638418 3.0883213 -8.875 1.3125 C-5.99224569 -0.70542802 -3.40855238 -0.25724924 0 0 Z " fill="#F6FDFA" transform="translate(176,94)"/>
<path d="M0 0 C3.22539494 1.07346736 6.44780968 2.1532483 9.6640625 3.25390625 C23.83271372 7.99639441 37.17607037 8.1482393 52 8 C52.495 9.485 52.495 9.485 53 11 C37.76482737 16.07839088 17.80193151 10.74108619 3.37890625 5.37890625 C1 4 1 4 0.15234375 1.83984375 C0.10207031 1.23269531 0.05179687 0.62554687 0 0 Z " fill="#29AA55" transform="translate(98,204)"/>
<path d="M0 0 C0.33 0 0.66 0 1 0 C1.66 2.97 2.32 5.94 3 9 C2.34 9 1.68 9 1 9 C0.97315688 11.81256281 0.95323812 14.62487241 0.9375 17.4375 C0.92912109 18.23994141 0.92074219 19.04238281 0.91210938 19.86914062 C0.9034857 21.91295221 0.9477185 23.95683902 1 26 C1.33 26.33 1.66 26.66 2 27 C2.35840222 29.32961443 2.68848712 31.66365343 3 34 C3.71061098 38.0064924 4.76934319 41.85320522 5.9375 45.75 C6.27652344 46.89984375 6.61554687 48.0496875 6.96484375 49.234375 C7.69043207 52.12892636 7.69043207 52.12892636 10 53 C10 53.66 10 54.32 10 55 C10.66 55.33 11.32 55.66 12 56 C12.309375 56.94875 12.61875 57.8975 12.9375 58.875 C13.96849261 61.90733121 14.61496026 63.01246689 17 65 C19 67 19 67 21 70 C20.67 70.66 20.34 71.32 20 72 C11.06799785 65.39276553 6.70557835 55.20950724 3 45 C2.60554688 44.00097656 2.21109375 43.00195312 1.8046875 41.97265625 C-2.73212784 28.88568893 -2.34577544 13.55972632 0 0 Z " fill="#21AB5C" transform="translate(52,113)"/>
<path d="M0 0 C0.88240486 2.43067352 1.19606862 3.54966889 0.14453125 5.96484375 C-0.29503906 6.61582031 -0.73460937 7.26679688 -1.1875 7.9375 C-1.65285156 8.63359375 -2.11820313 9.3296875 -2.59765625 10.046875 C-4.31325979 12.43629497 -6.14770862 14.7155073 -8 17 C-8.474375 17.86625 -8.94875 18.7325 -9.4375 19.625 C-11.27401926 22.41650927 -13.15625007 23.32291671 -16 25 C-16.33 25.680625 -16.66 26.36125 -17 27.0625 C-18 29 -18 29 -20.375 29.9375 C-23.70291516 31.28451328 -24.81404946 33.19925088 -27 36 C-30.75229495 38.86359351 -33.31673304 39.32673956 -38 39 C-35.06743673 36.75873576 -32.05737957 34.64415896 -29.02661133 32.53833008 C-16.95611541 24.08273377 -6.44302411 13.49290621 0 0 Z " fill="#D4FAE7" transform="translate(216,168)"/>
<path d="M0 0 C0.45626369 4.4556121 0.32081178 6.50746981 -2.16015625 10.31640625 C-3.10857265 11.4151571 -4.07697914 12.49690358 -5.0625 13.5625 C-5.56185059 14.12606201 -6.06120117 14.68962402 -6.57568359 15.27026367 C-10.11599132 19.20501716 -13.78061756 22.78960031 -18 26 C-18.33 26 -18.66 26 -19 26 C-19 24.35 -19 22.7 -19 21 C-18.195625 20.71125 -17.39125 20.4225 -16.5625 20.125 C-13.8673532 19.26737432 -13.8673532 19.26737432 -13 17 C-12.34 17 -11.68 17 -11 17 C-11.12375 15.9171875 -11.12375 15.9171875 -11.25 14.8125 C-10.92256852 11.12889581 -9.53906064 9.61373889 -7 7 C-6.34 7 -5.68 7 -5 7 C-4.896875 6.21625 -4.79375 5.4325 -4.6875 4.625 C-4.00541465 2.02067414 -3.23533224 0 0 0 Z " fill="#2AB45A" transform="translate(211,171)"/>
<path d="M0 0 C0.33 0 0.66 0 1 0 C1.21743019 4.62581778 1.41420817 9.25188498 1.59204102 13.87939453 C1.65540153 15.45287439 1.72436298 17.02613923 1.79907227 18.59912109 C1.90559831 20.86262071 1.99183796 23.12613378 2.07421875 25.390625 C2.11157639 26.09181458 2.14893402 26.79300415 2.18742371 27.51544189 C2.3170753 31.74412821 1.86785731 33.88199398 -1 37 C-1.2475 37.804375 -1.495 38.60875 -1.75 39.4375 C-3.56938596 43.16724121 -6.55142388 44.83311393 -10 47 C-10.66 46.67 -11.32 46.34 -12 46 C-11.61328125 45.45472656 -11.2265625 44.90945312 -10.828125 44.34765625 C-5.17404832 36.16044126 -1.05805462 28.41632406 -0.68359375 18.359375 C-0.64169922 17.28945312 -0.59980469 16.21953125 -0.55664062 15.1171875 C-0.51732422 14.00601563 -0.47800781 12.89484375 -0.4375 11.75 C-0.39431641 10.62335938 -0.35113281 9.49671875 -0.30664062 8.3359375 C-0.20067985 5.55741046 -0.09860858 2.77879609 0 0 Z " fill="#28AA60" transform="translate(177,96)"/>
<path d="M0 0 C6.93 0 13.86 0 21 0 C21 1.65 21 3.3 21 5 C14.07 5 7.14 5 0 5 C0 3.35 0 1.7 0 0 Z " fill="#317E68" transform="translate(133,117)"/>
<path d="M0 0 C-4.32058242 1.30102931 -7.58055464 0.72449924 -12 0 C-12.495 -0.495 -12.495 -0.495 -13 -1 C-14.76853292 -1.09938863 -16.54118275 -1.12969223 -18.3125 -1.125 C-19.76076172 -1.12886719 -19.76076172 -1.12886719 -21.23828125 -1.1328125 C-23.66143705 -1.01628167 -25.68644969 -0.69241648 -28 0 C-28 -0.66 -28 -1.32 -28 -2 C-28.53882813 -1.69320312 -29.07765625 -1.38640625 -29.6328125 -1.0703125 C-32.38573734 0.17440929 -34.89355702 0.64705876 -37.875 1.125 C-39.38707031 1.37636719 -39.38707031 1.37636719 -40.9296875 1.6328125 C-43.98561748 1.99827995 -46.92557891 2.06424163 -50 2 C-47 0 -47 0 -44 0 C-44 -0.66 -44 -1.32 -44 -2 C-28.86315765 -5.39744758 -14.85761215 -4.00012635 0 0 Z " fill="#30B160" transform="translate(164,43)"/>
<path d="M0 0 C1.4540625 0.0309375 1.4540625 0.0309375 2.9375 0.0625 C2.9375 2.0425 2.9375 4.0225 2.9375 6.0625 C1.54967515 6.9091034 0.15180603 7.73925339 -1.25 8.5625 C-2.02730469 9.0265625 -2.80460937 9.490625 -3.60546875 9.96875 C-6.30353386 11.16979647 -8.1431982 11.26991043 -11.0625 11.0625 C-9.66616572 6.61961819 -7.45848172 4.19725236 -4.0625 1.0625 C-3.0625 0.0625 -3.0625 0.0625 0 0 Z " fill="#158E56" transform="translate(122.0625,121.9375)"/>
<path d="M0 0 C0 0.99 0 1.98 0 3 C-1.84248416 4.16008262 -3.69308908 5.30886 -5.578125 6.3984375 C-9.29790863 8.85829442 -12.34670218 11.97935757 -15.5078125 15.109375 C-18.38660955 17.29329 -20.43979577 17.69041702 -24 18 C-19.11176399 11.61813632 -8.71563009 0 0 0 Z " fill="#2CB76D" transform="translate(97,50)"/>
<path d="M0 0 C0.33 0.66 0.66 1.32 1 2 C1.66 2.33 2.32 2.66 3 3 C-3.23012592 6.59226409 -9.59809775 9.86921421 -17 9 C-18.78515625 7.5 -18.78515625 7.5 -20 6 C-19.195625 5.87625 -18.39125 5.7525 -17.5625 5.625 C-16.716875 5.41875 -15.87125 5.2125 -15 5 C-14.67 4.34 -14.34 3.68 -14 3 C-13.154375 3.04125 -12.30875 3.0825 -11.4375 3.125 C-7.74684959 2.99079453 -2.75803611 2.75803611 0 0 Z " fill="#2CAB5D" transform="translate(171,205)"/>
<path d="M0 0 C0.90492188 0.10828125 0.90492188 0.10828125 1.828125 0.21875 C3.02695313 0.35796875 3.02695313 0.35796875 4.25 0.5 C5.03890625 0.5928125 5.8278125 0.685625 6.640625 0.78125 C9.26890397 1.06154619 9.26890397 1.06154619 13 1 C13 1.66 13 2.32 13 3 C3.70371697 4.94384796 -5.28038371 5.24587901 -14.75 5.125 C-16.14061846 5.11493717 -17.53124408 5.10581723 -18.921875 5.09765625 C-22.28143819 5.07432595 -25.64062175 5.0415923 -29 5 C-29.33 4.34 -29.66 3.68 -30 3 C-20.1 3 -10.2 3 0 3 C0 2.01 0 1.02 0 0 Z " fill="#DFFEEB" transform="translate(151,212)"/>
<path d="M0 0 C4.31072589 1.54744006 6.53747895 4.8416386 9.1875 8.375 C9.63802734 8.9525 10.08855469 9.53 10.55273438 10.125 C12.72442747 12.97717863 14.54558926 15.38253408 15 19 C9.93397259 17.3113242 8.6270806 14.38463644 6.1171875 9.7734375 C4.90152749 7.69858367 4.90152749 7.69858367 2.25 5.25 C1.5075 4.5075 0.765 3.765 0 3 C0 2.01 0 1.02 0 0 Z " fill="#2EAB5E" transform="translate(199,65)"/>
<path d="M0 0 C0.33 1.32 0.66 2.64 1 4 C0.34 4 -0.32 4 -1 4 C-1.103125 4.66 -1.20625 5.32 -1.3125 6 C-2.19213564 9.83841009 -3.56969896 13.33096691 -5 17 C-4.01 16.67 -3.02 16.34 -2 16 C-1.67 15.34 -1.34 14.68 -1 14 C-0.34 14.66 0.32 15.32 1 16 C0.01 17.32 -0.98 18.64 -2 20 C-3.65 19.67 -5.3 19.34 -7 19 C-7.45059618 13.70549486 -6.11096216 10.69418378 -3.5 6.125 C-2.99919922 5.23554688 -2.99919922 5.23554688 -2.48828125 4.328125 C-1.67020018 2.87895283 -0.83665257 1.43853019 0 0 Z " fill="#C6F8E1" transform="translate(106,141)"/>
<path d="M0 0 C-1.5255906 3.65141356 -3.72480909 5.90118112 -6.5625 8.625 C-9.69042054 11.51070681 -9.69042054 11.51070681 -12 15 C-12.66 15 -13.32 15 -14 15 C-12.39592305 8.87534255 -9.52328549 4.76043173 -4.3125 1.125 C-2 0 -2 0 0 0 Z " fill="#DDFCEE" transform="translate(128,105)"/>
<path d="M0 0 C0.33 0 0.66 0 1 0 C1.18175781 1.03898438 1.36351562 2.07796875 1.55078125 3.1484375 C2.94154978 10.9240555 4.4579687 18.50010625 7 26 C6.34 26 5.68 26 5 26 C4.34 25.01 3.68 24.02 3 23 C2.67 23 2.34 23 2 23 C0.04596958 15.27111181 -0.22428282 7.94957992 0 0 Z " fill="#CAF3E0" transform="translate(50,136)"/>
<path d="M0 0 C1.21236328 0.01353516 1.21236328 0.01353516 2.44921875 0.02734375 C3.37154297 0.04474609 3.37154297 0.04474609 4.3125 0.0625 C1.56219748 1.51045797 -1.12890688 2.60752745 -4.09375 3.53515625 C-4.92003906 3.79490234 -5.74632813 4.05464844 -6.59765625 4.32226562 C-7.45230469 4.58716797 -8.30695313 4.85207031 -9.1875 5.125 C-10.04214844 5.39376953 -10.89679688 5.66253906 -11.77734375 5.93945312 C-15.39770845 7.07187609 -18.99890298 8.17220301 -22.6875 9.0625 C-22.6875 8.4025 -22.6875 7.7425 -22.6875 7.0625 C-17.69453705 4.1179321 -13.35192374 3.42754064 -7.6875 3.0625 C-7.6875 2.4025 -7.6875 1.7425 -7.6875 1.0625 C-4.80538698 0.10179566 -2.98899956 -0.04331883 0 0 Z " fill="#C6F2DB" transform="translate(119.6875,39.9375)"/>
<path d="M0 0 C0.5625 3.125 0.5625 3.125 0 7 C-2.74335318 9.46527449 -5.76486756 11.2476366 -9 13 C-9.66 12.67 -10.32 12.34 -11 12 C-9.71937515 10.2925002 -8.38232443 8.62626404 -7 7 C-6.34 7 -5.68 7 -5 7 C-4.8453125 5.824375 -4.8453125 5.824375 -4.6875 4.625 C-4.00541465 2.02067414 -3.23533224 0 0 0 Z " fill="#16B352" transform="translate(211,171)"/>
<path d="M0 0 C1 1 1 1 1.11352539 3.40844727 C1.10828857 4.45057373 1.10305176 5.4927002 1.09765625 6.56640625 C1.09443359 7.69111328 1.09121094 8.81582031 1.08789062 9.97460938 C1.07951172 11.15861328 1.07113281 12.34261719 1.0625 13.5625 C1.05798828 14.75037109 1.05347656 15.93824219 1.04882812 17.16210938 C1.03699675 20.10812226 1.02051287 23.05403681 1 26 C0.67 26 0.34 26 0 26 C0 18.08 0 10.16 0 2 C-3.63 2.66 -7.26 3.32 -11 4 C-7.66904249 -0.26362561 -5.28632778 -0.49871017 0 0 Z " fill="#ABF4CC" transform="translate(176,94)"/>
<path d="M0 0 C1.12059732 3.31666723 0.88108499 5.17352588 -0.3125 8.4375 C-0.74175781 9.613125 -0.74175781 9.613125 -1.1796875 10.8125 C-1.45039062 11.534375 -1.72109375 12.25625 -2 13 C-2.309375 13.969375 -2.61875 14.93875 -2.9375 15.9375 C-4.24625707 18.47802844 -5.45466064 18.85331176 -8 20 C-6.12849037 12.84870304 -3.50213658 6.50594543 0 0 Z " fill="#2EB26E" transform="translate(61,84)"/>
<path d="M0 0 C1.64574566 -0.02688151 3.29161413 -0.04634123 4.9375 -0.0625 C5.85402344 -0.07410156 6.77054688 -0.08570313 7.71484375 -0.09765625 C10 0 10 0 11 1 C13.34723966 1.397493 15.70328548 1.74368723 18.0625 2.0625 C19.35285156 2.23910156 20.64320313 2.41570313 21.97265625 2.59765625 C23.47119141 2.79681641 23.47119141 2.79681641 25 3 C25 3.33 25 3.66 25 4 C20.1666528 4.08333357 15.76307437 3.95261487 11 3 C11 3.66 11 4.32 11 5 C6.25 4.25 6.25 4.25 4 2 C2.68252676 1.30251417 1.35085807 0.63040043 0 0 Z " fill="#14B34B" transform="translate(141,41)"/>
<path d="M0 0 C2.52113092 -0.05447822 5.0410585 -0.09389852 7.5625 -0.125 C8.26697266 -0.14175781 8.97144531 -0.15851562 9.69726562 -0.17578125 C14.51891822 -0.22022044 18.42297438 0.47231996 23 2 C23 2.33 23 2.66 23 3 C14.75 3 6.5 3 -2 3 C-1.34 2.67 -0.68 2.34 0 2 C0 1.34 0 0.68 0 0 Z " fill="#DFFCEC" transform="translate(129,37)"/>
<path d="M0 0 C2.5625 -0.4375 2.5625 -0.4375 6 0 C8.67751605 2.03619484 10.95640529 4.32760691 13 7 C13 7.66 13 8.32 13 9 C13.99 9.33 14.98 9.66 16 10 C14.68 10.33 13.36 10.66 12 11 C7.125 5.25 7.125 5.25 6 3 C4.02 3.33 2.04 3.66 0 4 C0 2.68 0 1.36 0 0 Z " fill="#31AF5E" transform="translate(112,144)"/>
<path d="M0 0 C0.33 0 0.66 0 1 0 C1.66 2.97 2.32 5.94 3 9 C2.34 9 1.68 9 1 9 C1.02320313 10.12019531 1.04640625 11.24039063 1.0703125 12.39453125 C1.08907237 13.86718084 1.10727234 15.33983763 1.125 16.8125 C1.14175781 17.55048828 1.15851562 18.28847656 1.17578125 19.04882812 C1.21074628 22.91246426 1.19397555 24.70903668 -1 28 C-1.02929977 24.64585201 -1.0468989 21.29173747 -1.0625 17.9375 C-1.07087891 16.99455078 -1.07925781 16.05160156 -1.08789062 15.08007812 C-1.10581103 9.9369232 -0.89259611 5.06741573 0 0 Z " fill="#15AB58" transform="translate(52,113)"/>
<path d="M0 0 C0.33 0.66 0.66 1.32 1 2 C-1.09016808 6.54918935 -4.13620455 8.99482576 -8 12 C-6.79444959 5.85169289 -5.08441876 3.64751781 0 0 Z M-11 12 C-10.01 12.33 -9.02 12.66 -8 13 C-8.66 13.66 -9.32 14.32 -10 15 C-10.33 14.01 -10.66 13.02 -11 12 Z " fill="#23AC5D" transform="translate(168,141)"/>
<path d="M0 0 C2 4 2 4 3 7 C2.67 7.66 2.34 8.32 2 9 C1.94011958 10.34114273 1.93937695 11.68527744 1.97265625 13.02734375 C1.98490234 13.81947266 1.99714844 14.61160156 2.00976562 15.42773438 C2.04484166 17.09709373 2.08388613 18.76637456 2.12695312 20.43554688 C2.13791016 21.22896484 2.14886719 22.02238281 2.16015625 22.83984375 C2.18541382 23.92833618 2.18541382 23.92833618 2.21118164 25.03881836 C2 27 2 27 0 30 C0 20.1 0 10.2 0 0 Z " fill="#15AD4B" transform="translate(178,96)"/>
<path d="M0 0 C1.85625 0.6496875 1.85625 0.6496875 3.75 1.3125 C9.41697218 3.21052896 15.19021215 4.61390848 21 6 C21 6.33 21 6.66 21 7 C13.73873422 7.47614858 7.49914025 6.47007667 1 3 C0.67 2.01 0.34 1.02 0 0 Z " fill="#D1F9E3" transform="translate(100,208)"/>
<path d="M0 0 C0.66 0.33 1.32 0.66 2 1 C1.75765625 1.52207031 1.5153125 2.04414062 1.265625 2.58203125 C-1.4811757 8.61442817 -3.80308445 14.74813925 -6 21 C-6.97591583 17.61682513 -6.85856655 15.4342662 -6 12 C-5.34 12 -4.68 12 -4 12 C-3.87625 11.113125 -3.7525 10.22625 -3.625 9.3125 C-2.30232558 2.30232558 -2.30232558 2.30232558 0 0 Z " fill="#D3FAED" transform="translate(59,84)"/>
<path d="M0 0 C0 0.99 0 1.98 0 3 C-4.50353262 4.75747614 -8.17639811 5.19294408 -13 5 C-12.34 3.68 -11.68 2.36 -11 1 C-10.05125 1.020625 -9.1025 1.04125 -8.125 1.0625 C-4.96309465 0.99926189 -3.14866406 0 0 0 Z " fill="#12AF50" transform="translate(168,207)"/>
<path d="M0 0 C1 3 1 3 -0.14453125 5.8828125 C-0.69496094 6.95273438 -1.24539062 8.02265625 -1.8125 9.125 C-2.35519531 10.20007813 -2.89789063 11.27515625 -3.45703125 12.3828125 C-5 15 -5 15 -7 16 C-7.125 11.25 -7.125 11.25 -6 9 C-5.01 9 -4.02 9 -3 9 C-3.061875 8.2575 -3.12375 7.515 -3.1875 6.75 C-2.96905704 3.54616994 -2.09749995 2.35968744 0 0 Z " fill="#36B066" transform="translate(218,160)"/>
<path d="M0 0 C1.84187025 2.76280538 2.72248277 4.80707826 3.6875 7.9375 C3.95949219 8.79214844 4.23148438 9.64679688 4.51171875 10.52734375 C5.02075548 13.10510574 4.84888744 14.54449337 4 17 C4 16.34 4 15.68 4 15 C3.01 15 2.02 15 1 15 C0.67 10.05 0.34 5.1 0 0 Z " fill="#44B375" transform="translate(219,93)"/>
<path d="M0 0 C1.11017502 3.33052505 0.87254667 4.74412218 0.1875 8.125 C0.01605469 9.01445312 -0.15539062 9.90390625 -0.33203125 10.8203125 C-0.66267578 11.89925781 -0.66267578 11.89925781 -1 13 C-1.99 13.495 -1.99 13.495 -3 14 C-3 10.33333333 -3 6.66666667 -3 3 C-2.34 3 -1.68 3 -1 3 C-0.67 2.01 -0.34 1.02 0 0 Z " fill="#1CAB54" transform="translate(222,144)"/>
<path d="M0 0 C1.61148877 4.02872193 0.56618811 7.08452971 -1 11 C-3.5 13 -3.5 13 -6 14 C-6.66 13.67 -7.32 13.34 -8 13 C-7.59007812 12.39671875 -7.18015625 11.7934375 -6.7578125 11.171875 C-6.21898437 10.37265625 -5.68015625 9.5734375 -5.125 8.75 C-4.59132812 7.96109375 -4.05765625 7.1721875 -3.5078125 6.359375 C-2.18177985 4.28444308 -1.05071825 2.22385028 0 0 Z " fill="#43B077" transform="translate(173,129)"/>
<path d="M0 0 C1.04449911 3.13349732 0.93423645 3.98968256 0 7 C-0.66 7 -1.32 7 -2 7 C-2 7.99 -2 8.98 -2 10 C-2.99 10.33 -3.98 10.66 -5 11 C-5 8.69 -5 6.38 -5 4 C-4.0409375 3.8453125 -4.0409375 3.8453125 -3.0625 3.6875 C-2.381875 3.460625 -1.70125 3.23375 -1 3 C-0.67 2.01 -0.34 1.02 0 0 Z " fill="#12BB4C" transform="translate(113,113)"/>
<path d="M0 0 C2.97 0.99 5.94 1.98 9 3 C9 3.66 9 4.32 9 5 C9.639375 5.103125 10.27875 5.20625 10.9375 5.3125 C11.618125 5.539375 12.29875 5.76625 13 6 C13.33 6.99 13.66 7.98 14 9 C10.40241608 7.67726488 7.36262865 6.0805802 4.1875 3.9375 C3.39730469 3.41027344 2.60710937 2.88304687 1.79296875 2.33984375 C1.20128906 1.89769531 0.60960938 1.45554688 0 1 C0 0.67 0 0.34 0 0 Z " fill="#35B564" transform="translate(85,198)"/>
<path d="M0 0 C-0.83144531 0.48210938 -1.66289063 0.96421875 -2.51953125 1.4609375 C-3.60621094 2.09257813 -4.69289063 2.72421875 -5.8125 3.375 C-6.89144531 4.00148438 -7.97039062 4.62796875 -9.08203125 5.2734375 C-11.08831093 6.46055346 -13.06034059 7.70689373 -15 9 C-15 8.01 -15 7.02 -15 6 C-14.34 6 -13.68 6 -13 6 C-13 5.34 -13 4.68 -13 4 C-12.34 4 -11.68 4 -11 4 C-11 3.34 -11 2.68 -11 2 C-9.73392393 1.46770674 -8.46189588 0.94955456 -7.1875 0.4375 C-6.47980469 0.14746094 -5.77210937 -0.14257812 -5.04296875 -0.44140625 C-3 -1 -3 -1 0 0 Z " fill="#D7FBEC" transform="translate(97,50)"/>
<path d="M0 0 C0 3.1807986 -0.31849227 4.36738946 -2 7 C-3.875 8.30078125 -3.875 8.30078125 -6 9.3125 C-6.70125 9.65925781 -7.4025 10.00601563 -8.125 10.36328125 C-9.053125 10.67845703 -9.053125 10.67845703 -10 11 C-10.66 10.67 -11.32 10.34 -12 10 C-11.30132812 9.44570312 -10.60265625 8.89140625 -9.8828125 8.3203125 C-8.97273437 7.59585938 -8.06265625 6.87140625 -7.125 6.125 C-6.22007812 5.40570313 -5.31515625 4.68640625 -4.3828125 3.9453125 C-1.99734824 2.06439526 -1.99734824 2.06439526 0 0 Z " fill="#CAFADD" transform="translate(200,190)"/>
<path d="M0 0 C0.66 0 1.32 0 2 0 C1.17812739 4.38332057 0.09845718 8.67940177 -1 13 C-3.5654594 10.4345406 -3.54046087 8.52313332 -4 5 C-3.34 4.67 -2.68 4.34 -2 4 C-0.86649466 1.98330173 -0.86649466 1.98330173 0 0 Z " fill="#34B264" transform="translate(100,147)"/>
<path d="M0 0 C6.37 -0.49 6.37 -0.49 9.25 1.75 C9.8275 2.4925 10.405 3.235 11 4 C11.5775 4.70125 12.155 5.4025 12.75 6.125 C14 8 14 8 14 10 C13.34 10 12.68 10 12 10 C10.21296775 8.02391144 8.59386357 5.94319246 6.94921875 3.84765625 C4.65007452 1.66830711 3.10420715 1.33660078 0 1 C0 0.67 0 0.34 0 0 Z " fill="#CEF6E0" transform="translate(113,143)"/>
<path d="M0 0 C0 0.66 0 1.32 0 2 C-1.4117783 2.53394179 -2.82970244 3.05165104 -4.25 3.5625 C-5.03890625 3.85253906 -5.8278125 4.14257812 -6.640625 4.44140625 C-9.19103452 5.04522837 -10.55322229 4.8473932 -13 4 C-11.58774074 3.32404685 -10.16997095 2.65959941 -8.75 2 C-7.56664063 1.443125 -7.56664063 1.443125 -6.359375 0.875 C-4 0 -4 0 0 0 Z " fill="#30AA68" transform="translate(110,45)"/>
<path d="M0 0 C0.33 2.97 0.66 5.94 1 9 C-0.65 9.33 -2.3 9.66 -4 10 C-3.67 9.34 -3.34 8.68 -3 8 C-2.34 8 -1.68 8 -1 8 C-1 6.02 -1 4.04 -1 2 C-2.65 2 -4.3 2 -6 2 C-2.25 0 -2.25 0 0 0 Z " fill="#CEEEE2" transform="translate(126,120)"/>
<path d="M0 0 C7.21471629 -0.35482211 13.12418702 0.8408662 20 3 C15.67941758 4.30102931 12.41944536 3.72449924 8 3 C7.67 2.67 7.34 2.34 7 2 C4.67182036 1.63239269 2.3381615 1.29758419 0 1 C0 0.67 0 0.34 0 0 Z " fill="#3EB168" transform="translate(144,40)"/>
<path d="M0 0 C0.99 0 1.98 0 3 0 C3.33 1.32 3.66 2.64 4 4 C4.66 4 5.32 4 6 4 C8.10865385 7.47307692 8.10865385 7.47307692 7.55859375 10.140625 C7.28208984 11.06101562 7.28208984 11.06101562 7 12 C5.83061933 10.18924982 4.66456267 8.37635257 3.5 6.5625 C2.8503125 5.55316406 2.200625 4.54382813 1.53125 3.50390625 C0 1 0 1 0 0 Z " fill="#D6FAE7" transform="translate(207,72)"/>
<path d="M0 0 C0 0.99 0 1.98 0 3 C-3.44450737 5.29633824 -5.93812283 5.54016485 -10 6 C-4.4 0 -4.4 0 0 0 Z " fill="#37B473" transform="translate(97,50)"/>
<path d="M0 0 C0.33 0 0.66 0 1 0 C1.66 5.28 2.32 10.56 3 16 C0 13 0 13 -0.29296875 9.86328125 C-0.25816406 8.69152344 -0.22335938 7.51976562 -0.1875 6.3125 C-0.16042969 5.13300781 -0.13335937 3.95351562 -0.10546875 2.73828125 C-0.07066406 1.83464844 -0.03585938 0.93101562 0 0 Z " fill="#B3EFCE" transform="translate(50,136)"/>
<path d="M0 0 C4.09754984 0.74500906 8.07531428 1.5930372 12 3 C13.4375 5.125 13.4375 5.125 14 7 C9.25981099 5.16508812 4.63586749 3.08058541 0 1 C0 0.67 0 0.34 0 0 Z " fill="#C7F8DC" transform="translate(172,46)"/>
<path d="M0 0 C0.90492188 0.10828125 0.90492188 0.10828125 1.828125 0.21875 C3.02695313 0.35796875 3.02695313 0.35796875 4.25 0.5 C5.03890625 0.5928125 5.8278125 0.685625 6.640625 0.78125 C9.26890397 1.06154619 9.26890397 1.06154619 13 1 C13 1.66 13 2.32 13 3 C8.71 3 4.42 3 0 3 C0 2.01 0 1.02 0 0 Z " fill="#B4EFC9" transform="translate(151,212)"/>
<path d="M0 0 C1.32 0.33 2.64 0.66 4 1 C1.69 3.31 -0.62 5.62 -3 8 C-3.33 6.68 -3.66 5.36 -4 4 C-2.68 3.67 -1.36 3.34 0 3 C0 2.01 0 1.02 0 0 Z " fill="#D3FAE7" transform="translate(160,144)"/>
<path d="M0 0 C1.38087404 3.83576122 0.94284862 7.08355188 0 11 C-2.05078125 12.2109375 -2.05078125 12.2109375 -4 13 C-3.52140759 11.39566191 -3.04210442 9.79153584 -2.5625 8.1875 C-2.29566406 7.29417969 -2.02882812 6.40085937 -1.75390625 5.48046875 C-1.19612127 3.64526945 -0.60655425 1.81966274 0 0 Z " fill="#47B87E" transform="translate(57,91)"/>
<path d="M0 0 C3.93673644 1.31224548 6.22719294 2.91910327 9 6 C8.01 6.33 7.02 6.66 6 7 C5.34 6.67 4.68 6.34 4 6 C4 5.01 4 4.02 4 3 C2.68 2.67 1.36 2.34 0 2 C0 1.34 0 0.68 0 0 Z " fill="#D1FBE5" transform="translate(83,198)"/>
<path d="M0 0 C2.625 0.375 2.625 0.375 5 1 C3.824375 1.928125 3.824375 1.928125 2.625 2.875 C0.03162353 4.89858661 0.03162353 4.89858661 -2 7 C-2.125 4.625 -2.125 4.625 -2 2 C-1.34 1.34 -0.68 0.68 0 0 Z " fill="#12B14E" transform="translate(114,146)"/>
<path d="M0 0 C0.33 0.66 0.66 1.32 1 2 C0.67 2.66 0.34 3.32 0 4 C-0.66 4 -1.32 4 -2 4 C-2 4.66 -2 5.32 -2 6 C-1.34 6.33 -0.68 6.66 0 7 C-1.65 7 -3.3 7 -5 7 C-3.75023244 3.34683329 -3.32901247 2.21934164 0 0 Z " fill="#23A068" transform="translate(116,126)"/>
<path d="M0 0 C0.33 0.66 0.66 1.32 1 2 C-0.01553817 5.0466145 -1.20762558 7.31143836 -3 10 C-3.66 10 -4.32 10 -5 10 C-3.84414715 6.08788267 -2.64465038 3.1254959 0 0 Z " fill="#BBF4D4" transform="translate(119,110)"/>
<path d="M0 0 C2.31 0 4.62 0 7 0 C4.14693203 2.32472205 1.45925163 3.7508258 -2 5 C-2.33 4.34 -2.66 3.68 -3 3 C-2.01 3 -1.02 3 0 3 C0 2.01 0 1.02 0 0 Z " fill="#2EB162" transform="translate(128,100)"/>
<path d="M0 0 C0.33 0 0.66 0 1 0 C1 2.64 1 5.28 1 8 C-0.98 8.99 -0.98 8.99 -3 10 C-2.01 6.7 -1.02 3.4 0 0 Z " fill="#CAF6DD" transform="translate(222,152)"/>
<path d="M0 0 C1.98 0.495 1.98 0.495 4 1 C2.35 2.32 0.7 3.64 -1 5 C-0.67 3.35 -0.34 1.7 0 0 Z M-4 5 C-3.01 5.33 -2.02 5.66 -1 6 C-1.66 6.66 -2.32 7.32 -3 8 C-3.33 7.01 -3.66 6.02 -4 5 Z " fill="#11B552" transform="translate(161,148)"/>
<path d="M0 0 C2.8125 -0.25 2.8125 -0.25 6 0 C7.875 2 7.875 2 9 4 C7.88625 3.814375 6.7725 3.62875 5.625 3.4375 C2.17431139 2.68319343 2.17431139 2.68319343 0 4 C0 2.68 0 1.36 0 0 Z " fill="#36A864" transform="translate(112,144)"/>
<path d="M0 0 C-3.36423277 2.96052484 -6.69159287 3.92289822 -11 5 C-11 4.34 -11 3.68 -11 3 C-7.14243493 0.84694043 -4.44870215 -0.39253254 0 0 Z " fill="#D2F9EA" transform="translate(108,44)"/>
<path d="M0 0 C-0.5625 1.9375 -0.5625 1.9375 -2 4 C-5.625 4.75 -5.625 4.75 -9 5 C-8.67 4.34 -8.34 3.68 -8 3 C-7.34 3 -6.68 3 -6 3 C-5.67 2.34 -5.34 1.68 -5 1 C-2 0 -2 0 0 0 Z " fill="#1BB153" transform="translate(187,199)"/>
<path d="M0 0 C1 2 1 2 0.3125 4.5625 C-1 7 -1 7 -3.125 7.8125 C-3.74375 7.874375 -4.3625 7.93625 -5 8 C-1.125 1.125 -1.125 1.125 0 0 Z " fill="#31B374" transform="translate(72,68)"/>
<path d="M0 0 C0.66 0.33 1.32 0.66 2 1 C0.35 2.98 -1.3 4.96 -3 7 C-4.125 3.25 -4.125 3.25 -3 1 C-2.01 0.67 -1.02 0.34 0 0 Z " fill="#0FB35C" transform="translate(76,67)"/>
<path d="M0 0 C0.66 0 1.32 0 2 0 C2.99 1.98 3.98 3.96 5 6 C3.35 5.67 1.7 5.34 0 5 C0 3.35 0 1.7 0 0 Z " fill="#17B84C" transform="translate(188,57)"/>
<path d="M0 0 C-2.97 1.32 -5.94 2.64 -9 4 C-6.37789678 -1.24420645 -5.61031397 -1.40257849 0 0 Z " fill="#38B664" transform="translate(184,204)"/>
<path d="M0 0 C0.99 0 1.98 0 3 0 C2.43628586 3.26954202 1.50037734 4.82575883 -1 7 C-1.125 2.25 -1.125 2.25 0 0 Z " fill="#2EAD5E" transform="translate(212,169)"/>
<path d="M0 0 C0.66 0 1.32 0 2 0 C1.67 2.64 1.34 5.28 1 8 C0.34 8 -0.32 8 -1 8 C-0.67 5.36 -0.34 2.72 0 0 Z " fill="#DAFBEC" transform="translate(224,144)"/>
<path d="M0 0 C1.98 0 3.96 0 6 0 C6 0.66 6 1.32 6 2 C3.36 2.66 0.72 3.32 -2 4 C-1.34 2.68 -0.68 1.36 0 0 Z " fill="#409071" transform="translate(119,122)"/>
<path d="M0 0 C2.62187494 1.04874998 3.79371361 1.64931313 5.25 4.125 C5.4975 4.74375 5.745 5.3625 6 6 C5.34 6 4.68 6 4 6 C4 5.34 4 4.68 4 4 C3.01 4.33 2.02 4.66 1 5 C0.67 3.35 0.34 1.7 0 0 Z " fill="#37AE64" transform="translate(199,65)"/>
</svg>
